<svg id="Camada_1" data-name="Camada 1" xmlns="http://www.w3.org/2000/svg" viewBox="0 0 595.28 268.81"><defs><style>.cls-1{fill:#0047ba;}</style></defs><title>Startapp</title><path class="cls-1" d="M483.8,223.3a64.18,64.18,0,0,1-53.11-43.05l-1.72-5.9a64.23,64.23,0,0,1-1.38-22.8l.59-4a14.78,14.78,0,0,1,.36-1.63,20.07,20.07,0,0,1,.44-2c.17-.75,1.85-6.39,2.73-8.62a58.66,58.66,0,0,1,2.52-5.59c.47-.93,1-1.92,1.58-2.87.41-.75,2.81-4.44,3.33-5.17l1.59-2.1A64.52,64.52,0,0,1,499.68,95c5.45.68,12.43,3.37,17.52,5.35,1.91.73,4.78,1.84,5.48,2a5,5,0,0,0,5.47-4.47L535.06,42A18,18,0,0,1,571,43.75L555.31,170.44A64.43,64.43,0,0,1,483.8,223.3Zm-41.49-37a56.4,56.4,0,0,0,101.12-4.63c.31-.74.64-1.51.94-2.32s.61-1.63.89-2.46.51-1.62.72-2.39c.37-1.33.72-2.7,1-4.1.12-.6.23-1.17.33-1.73l.82-5.21,3-24.13a19.78,19.78,0,0,1-12,2.35c-5.66-.7-9.68-4-12.56-6.8l-2.94-2.7a125.25,125.25,0,0,0-10.88-9c-1.4-1-2.67-1.93-3.75-2.64a15.16,15.16,0,0,0-6.41-2.44,12.07,12.07,0,0,0-3.8.11,15.71,15.71,0,0,0-4.8,1.77,14.79,14.79,0,0,0-6.82,8.15,15.05,15.05,0,0,0-.05,9.13,27.66,27.66,0,0,0,3.15,5.84l12.49,20.63a26.21,26.21,0,0,1-25,39.42c-2.21-.34-3.1-.49-3.55-.6A63.75,63.75,0,0,1,442.31,186.28Zm-6.18-36.45c-.14.76-.26,1.55-.36,2.35l0,.35c-2.28,19.71,19.31,37.95,40.11,42l2.9.49a18,18,0,0,0,17-27.09l-12.4-20.48a33.15,33.15,0,0,1-4.05-7.84A22.76,22.76,0,0,1,490,112.8a23.76,23.76,0,0,1,7.29-2.69,20.7,20.7,0,0,1,6.34-.18,23.2,23.2,0,0,1,9.88,3.72c1.19.77,2.61,1.76,4.15,2.91a134.29,134.29,0,0,1,11.54,9.56l3,2.8c2,2,4.69,4.2,7.92,4.61A11.59,11.59,0,0,0,553,123.47l.44-2.69,9.32-75.31A9.85,9.85,0,1,0,543.19,43l-6.91,55.84a13.21,13.21,0,0,1-14.62,11.6c-1.5-.19-3.57-1-7.41-2.45-4.71-1.82-11.15-4.31-15.58-4.86a56.66,56.66,0,0,0-54.4,25.55c-.51.77-1,1.51-1.38,2.26-.55.92-1,1.69-1.35,2.47-.79,1.54-1.48,3-2.07,4.55l0,.1-.14.31c-.38,1-.71,1.87-1,2.76s-.57,1.79-.81,2.66-.39,1.4-.54,2-.3,1.2-.39,1.79c-.08.37-.14.69-.2,1Z"/><path class="cls-1" d="M63.6,131.35c-6.74-4-8.92-6.43-9.05-9.73-.12-4,3.31-7.11,8.17-7.11,3.87,0,8.49,1.18,13,7.42L89,110.64c-5.74-8.49-15.79-12.79-25.52-12.79-15.78,0-28.51,10-28.51,25.89,0,13.72,10.8,19.09,20.53,24.83,7.86,4.55,11.35,6.24,11.35,10.1,0,4.25-3.87,7.93-10.42,7.93-5.49,0-11.79-3.25-15.66-9.92L27.35,168.47C34,179,45.51,183.38,56.3,183.38c17.53,0,30.13-9.86,30.13-27.58C86.43,142.58,75.64,138.59,63.6,131.35Z"/><path class="cls-1" d="M109.89,167.47c-1.87,0-3-1.5-2.56-4.74l2.81-23.58h11.91l1.75-14.29H111.88l2.56-20.27-18,3.55-2.18,16.72H88.49l-1.75,14.29h5.74L89.36,165c-1.56,13.29,4.87,18.34,13.73,18.34a31.08,31.08,0,0,0,15.47-4.12l-2.87-13.6A13.43,13.43,0,0,1,109.89,167.47Z"/><path class="cls-1" d="M161.17,124.86l-.44,4.12h-.37c-3-3.24-7.49-5.18-13.54-5.18-15,0-27.08,15.66-27.08,36.12,0,13.23,6.3,23.46,18.72,23.46,6.86,0,12.54-4.24,16.59-10.48h.25l-1.18,9.42h17.65l7-57.46Zm-1.75,19c-1.87,15.41-9.11,23.89-15.41,23.89-4,0-6.55-3.62-6.55-9.23,0-8.48,4.62-19,12.42-19a12.83,12.83,0,0,1,9.54,4.24Z"/><path class="cls-1" d="M237,167.47c-1.88,0-3-1.5-2.56-4.74l2.81-23.58h11.91l1.69-14.29H239l2.56-20.27-18.09,3.55-2.12,16.72h-5.8c-6.3,0-11.3,2.12-15.79,7.92h-.25l.94-7.92H182.94l-.06.06-7,57.34.06.06h17.47a.06.06,0,0,0,.06-.06l2.56-20.9c1.81-14.29,9.17-22.21,20.09-22.21h3.55L216.5,165c-1.62,13.29,4.81,18.34,13.73,18.34a31.1,31.1,0,0,0,15.47-4.12l-2.87-13.6A13.43,13.43,0,0,1,237,167.47Z"/><path class="cls-1" d="M396.73,123.8c-7.36,0-13.1,4-17.22,10.11h-.25l1.19-9H362.79l-.62,5.18c2.81,4.62,4.3,10.48,4.3,17.34,0,11.79-3.8,22.27-10.1,29.57l-3.5,28.57h17.66l3.18-26.2H374c3.43,2.75,8.05,4.06,13.48,4.06,15.47,0,27.51-15.6,27.51-36C415,134.22,408.71,123.8,396.73,123.8Zm-13.16,43.92c-3.74,0-6.49-.87-8.55-3.56l.25-1.87c2-14.72,9.11-22.77,15.6-22.77,3.93,0,6.36,3.93,6.36,8.92C397.23,157.61,392.61,167.72,383.57,167.72Z"/><path class="cls-1" d="M362.29,147.38a35,35,0,0,0-1.12-9.11c-2.31-8.54-8.05-14.47-17.09-14.47-7.36,0-13.1,4-17.22,10.11h-.19l1.13-9H310.14l-9.92,80.66h17.66l3.24-26.2h.19c3.43,2.75,8.05,4.06,13.47,4.06,9.55,0,17.84-6,22.71-15.35A44,44,0,0,0,362.29,147.38ZM331,167.72c-3.75,0-6.55-.87-8.55-3.56l.19-1.87c2-14.72,9.11-22.77,15.59-22.77,4,0,6.37,3.93,6.37,8.92C344.58,157.61,340,167.72,331,167.72Z"/><path class="cls-1" d="M306,124.86H288.43l-.5,4.12h-.31c-3.06-3.24-7.55-5.18-13.6-5.18-15,0-27.07,15.66-27.07,36.12,0,13.23,6.3,23.46,18.71,23.46,6.86,0,12.54-4.24,16.6-10.48h.31l-1.19,9.42H299l7-57.46Zm-19.34,19c-1.81,15.41-9.11,23.89-15.34,23.89-4,0-6.62-3.62-6.62-9.23,0-8.48,4.68-19,12.48-19a12.71,12.71,0,0,1,9.48,4.24Z"/></svg>